# AST/ASF file generated using VICON BodyLanguage
# -----------------------------------------------
:version 1.10
:name VICON
:units
  mass 1.0
  length 0.45
  angle deg
:documentation
   .ast/.asf automatically generated from VICON data using
   VICON BodyBuilder and BodyLanguage model FoxedUp or BRILLIANT.MOD
:root
   order TX TY TZ RX RY RZ
   axis XYZ
   position 0 0 0  
   orientation 0 0 0 
:bonedata
  begin
     id 1 
     name lhipjoint
     direction 0.54267 -0.795011 0.271047 
     length 2.39899 
     axis 0 0 0  XYZ
  end
  begin
     id 2 
     name lfemur
     direction 0.34202 -0.939693 0  
     length 7.49701  
     axis 0 0 20  XYZ
    dof rx ry rz
    limits (-160.0 20.0)
           (-70.0 70.0)
           (-60.0 70.0)
  end
  begin
     id 3 
     name ltibia
     direction 0.34202 -0.939693 0   
     length 8.1668   
     axis 0 0 20   XYZ
    dof rx
    limits (-10.0 170.0)
  end
  begin
     id 4 
     name lfoot
     direction 0.0736283 -0.202292 0.976554   
     length 2.13544   
     axis -90 7.62852e-016 20   XYZ
    dof rx rz
    limits (-45.0 90.0)
           (-70.0 20.0)
  end
  begin
     id 5 
     name ltoes
     direction 1.53557e-011 -4.22024e-011 1   
     length 1.07411   
     axis -90 7.62852e-016 20   XYZ
    dof rx
    limits (-90.0 20.0)
  end
  begin
     id 6 
     name rhipjoint
     direction -0.538061 -0.797813 0.272002   
     length 2.39057  
     axis 0 0 0  XYZ 
  end
  begin
     id 7 
     name rfemur
     direction -0.34202 -0.939693 0   
     length 7.50152   
     axis 0 0 -20   XYZ
    dof rx ry rz
    limits (-160.0 20.0)
           (-70.0 70.0)
           (-70.0 60.0)
  end
  begin
     id 8 
     name rtibia
     direction -0.34202 -0.939693 0   
     length 8.05793   
     axis 0 0 -20   XYZ
    dof rx
    limits (-10.0 170.0)
 end
 begin
     id 9 
     name rfoot
     direction -0.0765195 -0.210236 0.974652   
     length 2.28698  
     axis -90 -7.62852e-016 -20   XYZ
    dof rx rz
    limits (-45.0 90.0)
           (-20.0 70.0)
  end
  begin
     id 10 
     name rtoes
     direction -1.53542e-011 -4.21847e-011 1   
     length 1.14762   
     axis -90 -7.62852e-016 -20   XYZ
    dof rx
    limits (-90.0 20.0)
  end
  begin
     id 11 
     name lowerback
     direction -0.0217239 0.996592 -0.0795765   
     length 2.08176   
     axis 0 0 0   XYZ
    dof rx ry rz
    limits (-20.0 45.0)
           (-30.0 30.0)
           (-30.0 30.0)
  end
  begin
     id 12 
     name upperback
     direction -0.00563773 0.999651 -0.0258155   
     length 2.08898   
     axis 0 0 0   XYZ
    dof rx ry rz
    limits (-20.0 45.0)
           (-30.0 30.0)
           (-30.0 30.0)
  end
  begin
     id 13 
     name thorax
     direction 0.0032706 0.999923 0.0119599   
     length 2.0968   
     axis 0 0 0   XYZ
    dof rx ry rz
    limits (-20.0 45.0)
           (-30.0 30.0)
           (-30.0 30.0)
  end
  begin
     id 14 
     name lowerneck
     direction -0.0285886 0.99568 0.0883427   
     length 1.81272   
     axis 0 0 0   XYZ
    dof rx ry rz
    limits (-20.0 45.0)
           (-30.0 30.0)
           (-30.0 30.0)
  end
  begin
     id 15 
     name upperneck
     direction 0.0807535 0.97985 -0.18268   
     length 1.82518   
     axis 0 0 0   XYZ
    dof rx ry rz
    limits (-20.0 45.0)
           (-30.0 30.0)
           (-30.0 30.0)
  end
  begin
     id 16
     name head
     direction 0.0236605 0.997053 -0.0729767  
     length 1.84443  
     axis 0 0 0   XYZ
    dof rx ry rz
    limits (-20.0 45.0)
           (-30.0 30.0)
           (-30.0 30.0)
  end
  begin
     id 17 
     name lclavicle
     direction 0.918986 0.39378 -0.0200683  
     length 3.27822  
     axis 0 0 0   XYZ
    dof ry rz
    limits (-20.0 10.0)
           (0.0 20.0)
  end
  begin
     id 18 
     name lhumerus
     direction 1 -4.4897e-011 2.09544e-027   
     length 5.5568   
     axis 180 -30 -90   XYZ
    dof rx ry rz
    limits (-60.0 90.0)
           (-90.0 90.0)
           (-90.0 90.0)
  end
  begin
     id 19
     name lradius
     direction 1 -4.48957e-011 -1.27696e-026   
     length 3.63979   
     axis 180 -30 -90   XYZ
    dof rx
    limits (-10.0 170.0)
  end
  begin
     id 20
     name lwrist
     direction 1 -4.49001e-011 -1.49001e-026   
     length 1.8199   
     axis 9.0955e-015 90 90   XYZ
    dof ry
    limits (-180.0 0.0)
 end
  begin
     id 21 
     name lhand
     direction 1 -4.48709e-011 -2.9758e-026   
     length 0.569419   
     axis 1.90115e-014 90 90   XYZ
    dof rx rz
    limits (-90.0 90.0)
           (-45.0 45.0)
  end
  begin
     id 22 
     name lfingers
     direction 1 -4.49175e-011 -5.96505e-026   
     length 0.45908   
     axis 3.80223e-014 90 90   XYZ
    dof rx
    limits (0.0 90.0)
  end
  begin
     id 23
     name lthumb
     direction 0.707107 -6.34864e-011 0.707107   
     length 0.65915   
     axis -90 45 -3.84942e-014   XYZ
    dof rx rz
    limits (-45.0 45.0)
           (-45.0 45.0)
  end
  begin
     id 24 
     name rclavicle
     direction -0.911913 0.396426 -0.106115   
     length 3.46301  
     axis 0 0 0   XYZ 
    dof ry rz
    limits (-10.0 20.0)
           (-20.0 0.0)
  end
  begin
     id 25 
     name rhumerus
     direction -1 -4.48965e-011 7.78516e-028  
     length 5.34339   
     axis 180 30 90   XYZ
    dof rx ry rz
    limits (-90.0 60.0)
           (-90.0 90.0)
           (-90.0 90.0)
  end
  begin
     id 26 
     name rradius
     direction -1 -4.48948e-011 -5.79823e-027   
     length 3.65101   
     axis 180 30 90   XYZ
    dof rx
    limits (-10.0 170.0)
  end
  begin
     id 27 
     name rwrist
     direction -1 -4.48995e-011 -1.48996e-026   
     length 1.8255   
     axis 9.0955e-015 -90 -90   XYZ
    dof ry
    limits (-180.0 0.0)
  end
  begin
     id 28
     name rhand
     direction -1 -4.48957e-011 -2.97937e-026   
     length 0.694249   
     axis 1.90115e-014 -90 -90   XYZ
    dof rx rz
    limits (-90.0 90.0)
           (-45.0 45.0)
  end
  begin
     id 29
     name rfingers
     direction -1 -4.4898e-011 -5.95943e-026   
     length 0.559721   
     axis 3.80223e-014 -90 -90   XYZ
    dof rx
    limits (0.0 90.0)
  end
  begin
     id 30
     name rthumb
     direction -0.707107 -6.34969e-011 0.707107   
     length 0.803651   
     axis -90 -45 3.84942e-014   XYZ
    dof rx rz
    limits (-45.0 45.0)
           (-45.0 45.0)
  end
:hierarchy
  begin
    root lhipjoint rhipjoint lowerback
    lhipjoint lfemur
    lfemur ltibia
    ltibia lfoot
    lfoot ltoes
    rhipjoint rfemur
    rfemur rtibia
    rtibia rfoot
    rfoot rtoes
    lowerback upperback
    upperback thorax
    thorax lowerneck lclavicle rclavicle
    lowerneck upperneck
    upperneck head
    lclavicle lhumerus
    lhumerus lradius
    lradius lwrist
    lwrist lhand lthumb
    lhand lfingers
    rclavicle rhumerus
    rhumerus rradius
    rradius rwrist
    rwrist rhand rthumb
    rhand rfingers
  end

#!OML:ASF H:\Terrain\Walking\May29\JustinRory\rory.ASF
:FULLY-SPECIFIED
:DEGREES
549
root 18.1116 10.1212 1.24003 -388.483 -73.8269 357.362
lowerback 33.5772 2.38683 -3.29442
upperback 13.6605 0.696464 1.03525
thorax -2.22728 -0.435957 2.62455
lowerneck 5.83722 -19.5898 -17.3239
upperneck 8.9943 -30.3932 22.8028
head 8.11398 -15.0893 6.9114
rclavicle 1.82385e-014 4.77083e-015
rhumerus 53.6741 38.6535 -40.5527
rradius 80.3113
rwrist -21.5701
rhand -13.6587 17.9728
rfingers 7.12502
rthumb 12.4582 -11.6359
lclavicle 1.82385e-014 4.77083e-015
lhumerus -44.3318 6.2075 67.1895
lradius 82.7624
lwrist 16.9033
lhand -22.1111 25.3495
lfingers 7.12502
lthumb 4.3015 -304.714
rfemur -59.7629 -10.1565 15.5631
rtibia 74.9505
rfoot 18.0479 0.445095
rtoes 9.90554
lfemur -57.1017 8.45658 -4.80117
ltibia 65.2884
lfoot 24.7926 -0.642732
ltoes 2.53472
550
root 18.1086 10.1173 1.24738 -387.106 -74.1234 356.003
lowerback 34.0129 2.69036 -2.59883
upperback 13.7527 1.25437 0.982638
thorax -2.3028 -0.137795 2.02281
lowerneck 5.43931 -20.2097 -16.5797
upperneck 8.54437 -31.156 23.1393
head 8.13861 -15.4118 6.72147
rclavicle 1.15295e-014 -6.55989e-015
rhumerus 52.8692 37.9125 -40.1292
rradius 80.6895
rwrist -23.4821
rhand -15.6316 17.8249
rfingers 7.12502
rthumb 10.5555 -11.89
lclavicle 1.15295e-014 -6.55989e-015
lhumerus -42.8305 4.72786 67.3856
lradius 82.5748
lwrist 16.6246
lhand -24.0504 25.3201
lfingers 7.12502
lthumb 2.42867 -304.714
rfemur -59.7979 -10.0592 16.1201
rtibia 74.8497
rfoot 18.347 0.162294
rtoes 10.8836
lfemur -57.1561 8.72242 -4.34582
ltibia 65.3463
lfoot 24.3634 -0.0487593
ltoes 6.02146
551
root 18.0826 10.1011 1.26065 -384.322 -74.2505 353.525
lowerback 34.0592 2.75462 -2.04379
upperback 13.744 1.52201 1.19118
thorax -2.33661 0.0114985 1.86231
lowerneck 4.99117 -20.6379 -16.3506
upperneck 8.32862 -31.6728 23.2727
head 8.2387 -15.6176 6.56404
rclavicle -2.87244e-014 6.16232e-015
rhumerus 52.4535 37.4234 -39.4549
rradius 81.0467
rwrist -25.0479
rhand -17.8962 17.8973
rfingers 7.12502
rthumb 8.37053 -11.9169
lclavicle -2.87244e-014 6.16232e-015
lhumerus -41.9206 3.91936 67.7034
lradius 82.5028
lwrist 16.2634
lhand -24.2401 25.6129
lfingers 7.12502
lthumb 2.24548 -304.419
rfemur -60.1058 -9.83796 16.9271
rtibia 74.7842
rfoot 17.9061 2.34346
rtoes 0.191135
lfemur -57.7603 8.90071 -3.71521
ltibia 65.4881
lfoot 24.6475 0.344462
ltoes 9.61785
552
root 18.0644 10.086 1.27962 -382.045 -74.2363 351.523
lowerback 34.0387 2.76119 -1.6238
upperback 13.7459 1.67679 1.38539
thorax -2.3305 0.099628 1.79449
lowerneck 4.78887 -20.9141 -16.3525
upperneck 7.95279 -32.0039 23.567
head 8.2759 -15.765 6.54896
rclavicle 1.19271e-014 2.06736e-014
rhumerus 51.8854 36.656 -39.2103
rradius 81.3186
rwrist -25.9806
rhand -19.5298 18.4908
rfingers 7.12502
rthumb 6.79371 -11.3802
lclavicle 1.19271e-014 2.06736e-014
lhumerus -41.1151 3.5055 68.0181
lradius 82.4675
lwrist 16.073
lhand -22.1322 24.1997
lfingers 7.12502
lthumb 4.28108 -305.864
rfemur -60.4466 -10.2155 17.7025
rtibia 74.8077
rfoot 16.9206 4.74037
rtoes -9.57946
lfemur -58.353 8.99145 -3.32683
ltibia 65.561
lfoot 25.1495 -0.0449626
ltoes 9.72364
553
root 18.0831 10.0993 1.28677 -383.419 -73.9718 353.038
lowerback 33.9848 2.90506 -2.22449
upperback 13.8751 1.65476 1.27509
thorax -2.18165 0.0605754 2.0041
lowerneck 4.83066 -20.9326 -16.4886
upperneck 7.53689 -32.0254 24.0094
head 8.24797 -15.7927 6.69386
rclavicle -7.95139e-015 3.33958e-014
rhumerus 51.4058 35.8375 -39.6185
rradius 81.5826
rwrist -26.9602
rhand -20.4607 19.228
rfingers 7.12502
rthumb 5.89503 -10.6699
lclavicle -7.95139e-015 3.33958e-014
lhumerus -40.5249 3.53519 67.9938
lradius 82.6327
lwrist 15.8255
lhand -20.5622 22.3895
lfingers 7.12502
lthumb 5.79706 -307.71
rfemur -60.705 -10.4039 16.9996
rtibia 74.9463
rfoot 17.2025 3.37609
rtoes -2.29768
lfemur -58.3997 8.86174 -4.02215
ltibia 65.5351
lfoot 25.2126 -0.644058
ltoes 7.80011
554
root 18.1195 10.129 1.28165 -384.007 -73.7395 353.739
lowerback 33.8205 2.92179 -2.83996
upperback 14.0779 1.46781 1.21852
thorax -1.90615 -0.0714472 2.33089
lowerneck 4.71218 -20.8079 -16.651
upperneck 7.27671 -31.8476 24.3725
head 8.245 -15.7105 6.8445
rclavicle -1.59028e-014 -3.57812e-015
rhumerus 51.3461 35.0011 -40.2448
rradius 81.7657
rwrist -27.8331
rhand -21.3497 20.1529
rfingers 7.12502
rthumb 5.03669 -9.7672
lclavicle -1.59028e-014 -3.57812e-015
lhumerus -40.1413 3.76223 67.8163
lradius 82.9537
lwrist 15.5304
lhand -19.8264 22.6752
lfingers 7.12502
lthumb 6.50736 -307.445
rfemur -61.1279 -10.4522 16.4734
rtibia 75.1856
rfoot 17.699 1.07857
rtoes 8.31276
lfemur -58.3514 8.6687 -4.47055
ltibia 65.4041
lfoot 25.0793 -0.531565
ltoes 8.87516
555
root 18.0782 10.0849 1.30699 -383.54 -73.778 353.411
lowerback 33.9469 2.99834 -3.06559
upperback 14.1312 1.4793 1.27872
thorax -1.90037 -0.0858023 2.50737
lowerneck 4.54251 -20.8332 -16.7575
upperneck 7.11269 -31.8619 24.5708
head 8.2805 -15.7094 6.88765
rclavicle -3.20043e-014 -7.55382e-015
rhumerus 50.9202 33.7443 -41.1783
rradius 81.8682
rwrist -28.0436
rhand -22.422 21.4105
rfingers 7.12502
rthumb 4.00125 -8.53164
lclavicle -3.20043e-014 -7.55382e-015
lhumerus -39.5373 3.54227 67.8233
lradius 82.9622
lwrist 15.2866
lhand -19.3775 23.306
lfingers 7.12502
lthumb 6.94078 -306.828
rfemur -61.0815 -10.6937 17.0567
rtibia 74.942
rfoot 17.0402 5.07653
rtoes -11.2143
lfemur -58.8483 8.7987 -4.40126
ltibia 65.6898
lfoot 25.2371 -0.326412
ltoes 11.0421
556
root 18.058 10.0615 1.31953 -383.111 -73.9179 353.028
lowerback 34.2582 3.1483 -3.33608
upperback 14.0677 1.57221 1.43817
thorax -2.09543 -0.0589966 2.78251
lowerneck 4.60625 -20.8928 -16.9647
upperneck 6.91416 -31.8925 24.5549
head 8.24189 -15.7393 6.9028
rclavicle 6.06293e-015 -4.37326e-015
rhumerus 50.2624 32.3907 -42.35
rradius 82.1402
rwrist -28.0048
rhand -23.5984 22.313
rfingers 7.12502
rthumb 2.86518 -7.64747
lclavicle 6.06293e-015 -4.37326e-015
lhumerus -39.2182 3.36318 67.9465
lradius 82.9938
lwrist 15.1316
lhand -19.7775 23.0591
lfingers 7.12502
lthumb 6.55457 -307.062
rfemur -61.3577 -10.9858 17.9823
rtibia 74.8521
rfoot 15.4958 9.14897
rtoes -26.4149
lfemur -59.1116 9.07182 -4.29986
ltibia 65.8741
lfoot 25.4656 -0.561941
ltoes 10.9068
557
root 18.0648 10.0708 1.32281 -383.537 -73.8644 353.45
lowerback 34.416 3.22528 -3.84816
upperback 14.1304 1.48669 1.48187
thorax -2.08755 -0.135566 3.1227
lowerneck 4.64445 -20.8573 -17.2268
upperneck 6.58974 -31.7985 24.729
head 8.18739 -15.714 7.00753
rclavicle -3.84648e-014 1.31198e-014
rhumerus 49.7453 30.9786 -43.7869
rradius 82.5061
rwrist -27.969
rhand -24.9769 23.2095
rfingers 7.12502
rthumb 1.53388 -6.76469
lclavicle -3.84648e-014 1.31198e-014
lhumerus -39.0307 3.45205 67.9081
lradius 83.1319
lwrist 15.0136
lhand -20.1011 22.8426
lfingers 7.12502
lthumb 6.24218 -307.269
rfemur -61.0595 -10.6248 17.1214
rtibia 74.7042
rfoot 17.2671 5.80197
rtoes -13.9887
lfemur -59.0856 9.11743 -4.54617
ltibia 65.95
lfoot 25.5349 -0.850802
ltoes 10.0411
558
root 18.0764 10.087 1.33085 -383.628 -73.579 353.565
lowerback 34.451 3.05865 -4.06031
upperback 14.2564 1.18186 1.30343
thorax -1.93751 -0.302063 3.1444
lowerneck 4.71889 -20.7084 -17.5446
upperneck 6.29815 -31.6712 25.343
head 8.23033 -15.6751 7.26041
rclavicle 2.57426e-014 -2.22639e-014
rhumerus 49.1537 29.2975 -45.8488
rradius 82.7159
rwrist -27.5515
rhand -26.1946 24.2609
rfingers 7.12502
rthumb 0.357768 -5.71858
lclavicle 2.57426e-014 -2.22639e-014
lhumerus -38.5501 3.43007 67.5288
lradius 83.0289
lwrist 14.7889
lhand -20.2996 22.0925
lfingers 7.12502
lthumb 6.05055 -308.014
rfemur -60.8907 -10.7534 16.6633
rtibia 74.6047
rfoot 17.9525 4.01843
rtoes -7.16301
lfemur -59.0739 8.8373 -4.80161
ltibia 65.8546
lfoot 25.6218 -0.839781
ltoes 10.4045
559
root 18.083 10.1014 1.33384 -380.823 -73.3869 350.816
lowerback 34.4773 2.71361 -3.16014
upperback 14.3235 1.01976 1.19813
thorax -1.85 -0.341434 2.61222
lowerneck 5.01661 -20.6603 -17.713
upperneck 5.89593 -31.7426 26.2017
head 8.27134 -15.7525 7.55425
rclavicle 2.0276e-014 9.93923e-015
rhumerus 48.1135 26.9371 -48.4431
rradius 82.8421
rwrist -26.7422
rhand -27.2356 24.9036
rfingers 7.12502
rthumb -0.647667 -5.07517
lclavicle 2.0276e-014 9.93923e-015
lhumerus -37.6962 2.863 67.1825
lradius 82.9559
lwrist 14.5482
lhand -20.8303 21.2637
lfingers 7.12502
lthumb 5.53819 -308.829
rfemur -60.8466 -11.0531 17.351
rtibia 74.451
rfoot 18.0225 3.83138
rtoes -7.41895
lfemur -59.3679 8.57504 -4.1789
ltibia 65.7536
lfoot 25.7877 -0.753104
ltoes 11.1318
560
root 18.0945 10.1195 1.33472 -378.46 -73.363 348.656
lowerback 34.4394 2.63867 -2.47602
upperback 14.3516 1.14463 1.22036
thorax -1.8044 -0.248486 2.23629
lowerneck 5.44105 -20.7106 -17.7174
upperneck 5.21456 -31.855 26.9733
head 8.16596 -15.8727 7.81535
rclavicle 5.725e-014 3.18055e-015
rhumerus 47.0245 24.0154 -50.9256
rradius 83.0228
rwrist -25.8508
rhand -28.0157 25.3733
rfingers 7.12502
rthumb -1.40104 -4.60184
lclavicle 5.725e-014 3.18055e-015
lhumerus -36.8171 2.24501 67.1496
lradius 83.05
lwrist 14.4042
lhand -20.7816 22.1684
lfingers 7.12502
lthumb 5.58525 -307.925
rfemur -61.1592 -11.1186 18.0285
rtibia 74.3474
rfoot 18.2575 3.53239
rtoes -6.64139
lfemur -59.6961 8.51109 -3.63245
ltibia 65.6412
lfoot 26.3557 -0.878145
ltoes 9.93102
561
root 18.0831 10.1174 1.34732 -377.607 -73.3856 347.931
lowerback 34.5657 2.74767 -2.55579
upperback 14.3382 1.25649 1.35984
thorax -1.87434 -0.203695 2.3873
lowerneck 5.87793 -20.679 -17.8827
upperneck 4.628 -31.8067 27.4451
head 8.01796 -15.9168 8.04435
rclavicle -4.90998e-014 3.97569e-016
rhumerus 46.3267 21.2503 -53.2362
rradius 83.1994
rwrist -25.2798
rhand -28.5265 26.4703
rfingers 7.12502
rthumb -1.89442 -3.50101
lclavicle -4.90998e-014 3.97569e-016
lhumerus -36.2729 2.07128 67.2189
lradius 83.0063
lwrist 14.29
lhand -20.699 23.3126
lfingers 7.12502
lthumb 5.66497 -306.783
rfemur -61.0786 -11.063 18.1528
rtibia 74.1818
rfoot 18.2288 3.69244
rtoes -8.23255
lfemur -59.935 8.52989 -3.46957
ltibia 65.6925
lfoot 26.8491 -1.11238
ltoes 8.58449
